<svg xmlns="http://www.w3.org/2000/svg" xmlns:xlink="http://www.w3.org/1999/xlink" width="816" zoomAndPan="magnify" viewBox="0 0 612 791.999994" height="1056" preserveAspectRatio="xMidYMid meet" version="1.0"><defs><g/><clipPath id="19e53655d4"><path d="M 15.210938 730.800781 L 78.390625 730.800781 L 78.390625 792 L 15.210938 792 Z M 15.210938 730.800781 " clip-rule="nonzero"/></clipPath><clipPath id="d4b0bfcc20"><path d="M 46.800781 730.800781 C 29.351562 730.800781 15.210938 744.945312 15.210938 762.390625 C 15.210938 779.835938 29.351562 793.980469 46.800781 793.980469 C 64.246094 793.980469 78.390625 779.835938 78.390625 762.390625 C 78.390625 744.945312 64.246094 730.800781 46.800781 730.800781 Z M 46.800781 730.800781 " clip-rule="nonzero"/></clipPath></defs><rect x="-61.2" width="734.4" fill="#ffffff" y="-79.199999" height="950.399992" fill-opacity="1"/><rect x="-61.2" width="734.4" fill="#162f65" y="-79.199999" height="950.399992" fill-opacity="1"/><path stroke-linecap="butt" transform="matrix(12.820554, 0, 0, 12.820554, 311.424244, 361.140559)" fill="none" stroke-linejoin="miter" d="M 8.925912 10.542159 L 7.431424 10.568362 L 11.118131 6.470024 C 12.295135 5.168098 12.977329 4.18914 12.977329 2.16328 L 12.977329 1.736414 C 12.977329 -0.310166 11.675403 -2.934736 7.431424 -2.934736 C 3.676772 -2.934736 1.885215 -1.143483 1.885215 2.501786 L 1.885215 2.907933 L 5.853453 2.907933 C 5.853453 1.095658 6.493904 0.517668 7.322042 0.517668 L 7.535323 0.517668 C 8.36864 0.517668 9.009091 1.116681 9.009091 2.481068 L 9.009091 2.694348 C 9.009091 3.527666 8.665405 3.975555 8.071875 4.616006 L 1.885215 11.505578 L 1.885215 14.000047 L 12.977329 14.000047 L 12.977329 10.542159 Z M 25.774163 9.307874 L 25.774163 2.053897 C 25.774163 -0.825695 23.852505 -2.934736 20.228259 -2.934736 C 16.598528 -2.934736 14.682354 -0.825695 14.682354 2.053897 L 14.682354 9.307874 C 14.682354 12.187771 16.598528 14.296811 20.228259 14.296811 C 23.852505 14.296811 25.774163 12.187771 25.774163 9.307874 Z M 21.80623 2.053897 L 21.80623 9.307874 C 21.80623 10.203652 21.274857 10.844103 20.270001 10.844103 L 20.186517 10.844103 C 19.181356 10.844103 18.650287 10.203652 18.650287 9.307874 L 18.650287 2.053897 C 18.650287 1.158119 19.181356 0.517668 20.186517 0.517668 L 20.270001 0.517668 C 21.274857 0.517668 21.80623 1.158119 21.80623 2.053897 Z M 21.80623 2.053897 " stroke="#e8c766" stroke-width="0.319999" stroke-opacity="1" stroke-miterlimit="4"/><path stroke-linecap="butt" transform="matrix(12.820554, 0, 0, 12.820554, 311.424244, 361.140559)" fill="none" stroke-linejoin="miter" d="M 8.925912 29.542106 L 7.431424 29.56831 L 11.118131 25.469971 C 12.295135 24.168045 12.977329 23.189088 12.977329 21.163227 L 12.977329 20.736361 C 12.977329 18.689782 11.675403 16.065212 7.431424 16.065212 C 3.676772 16.065212 1.885215 17.856464 1.885215 21.501734 L 1.885215 21.907881 L 5.853453 21.907881 C 5.853453 20.09591 6.493904 19.517615 7.322042 19.517615 L 7.535323 19.517615 C 8.36864 19.517615 9.009091 20.116629 9.009091 21.481015 L 9.009091 21.6946 C 9.009091 22.527613 8.665405 22.975502 8.071875 23.615953 L 1.885215 30.505525 L 1.885215 32.999994 L 12.977329 32.999994 L 12.977329 29.542106 Z M 18.540905 27.66737 L 14.572972 27.66737 L 14.572972 27.96444 C 14.572972 31.401304 16.473607 33.296759 20.228259 33.296759 C 24.472237 33.296759 25.878366 30.437885 25.878366 28.500688 L 25.878366 28.073822 C 25.878366 26.302984 25.024329 25.152183 23.982911 24.491013 C 24.982587 23.80882 25.774163 22.678738 25.774163 20.949946 L 25.774163 20.522776 C 25.774163 18.689782 24.472237 16.065212 20.228259 16.065212 C 16.473607 16.065212 14.682354 17.856464 14.682354 21.501734 L 14.682354 21.907881 L 18.650287 21.907881 C 18.650287 20.09591 19.290738 19.517615 20.118876 19.517615 L 20.332461 19.517615 C 21.165474 19.517615 21.80623 20.116629 21.80623 20.991384 L 21.80623 21.204969 C 21.80623 22.251567 21.29588 22.78294 20.270001 22.78294 L 18.093015 22.78294 L 18.093015 26.240523 L 20.332461 26.240523 C 21.358341 26.240523 21.910128 26.771897 21.910128 27.818495 L 21.910128 28.03208 C 21.910128 29.307803 21.165474 29.844356 20.332461 29.844356 L 20.118876 29.844356 C 19.290738 29.844356 18.540905 29.375443 18.540905 27.66737 Z M 18.540905 27.66737 " stroke="#e8c766" stroke-width="0.319999" stroke-opacity="1" stroke-miterlimit="4"/><g fill="#ffffff" fill-opacity="1"><g transform="translate(61.199999, 117.38906)"><g><path d="M 13.679688 -24.9375 L 13.679688 -27.632812 C 13.679688 -38.144531 15.367188 -44.007812 22.375 -44.007812 L 22.980469 -44.007812 C 28.710938 -44.007812 30.261719 -39.832031 30.261719 -32.621094 L 41.179688 -32.621094 L 41.179688 -35.046875 C 41.179688 -48.1875 34.84375 -53.445312 22.375 -53.445312 C 8.695312 -53.445312 2.628906 -45.828125 2.628906 -27.632812 L 2.628906 -24.9375 C 2.628906 -6.738281 8.695312 0.875 22.375 0.875 C 34.84375 0.875 41.179688 -4.378906 41.179688 -17.320312 L 41.179688 -17.925781 L 30.261719 -17.925781 C 30.261719 -12.265625 28.304688 -8.558594 22.980469 -8.558594 L 22.375 -8.558594 C 15.367188 -8.558594 13.679688 -14.421875 13.679688 -24.9375 Z M 13.679688 -24.9375 "/></g></g></g><g fill="#ffffff" fill-opacity="1"><g transform="translate(105.477223, 117.38906)"><g><path d="M 14.691406 -18.871094 L 20.285156 -18.871094 L 27.496094 0 L 39.292969 0 L 31 -20.421875 C 35.71875 -22.375 39.292969 -26.554688 39.292969 -35.046875 L 39.292969 -36.394531 C 39.292969 -50.34375 29.585938 -52.566406 21.027344 -52.566406 L 3.773438 -52.566406 L 3.773438 0 L 14.691406 0 Z M 14.691406 -28.304688 L 14.691406 -43.132812 L 21.5 -43.132812 C 24.464844 -43.132812 28.238281 -41.988281 28.238281 -36.054688 L 28.238281 -35.382812 C 28.238281 -29.453125 24.464844 -28.304688 21.5 -28.304688 Z M 14.691406 -28.304688 "/></g></g></g><g fill="#ffffff" fill-opacity="1"><g transform="translate(147.934822, 117.38906)"><g><path d="M 3.773438 -52.566406 L 3.773438 0 L 35.921875 0 L 35.921875 -9.433594 L 14.691406 -9.433594 L 14.691406 -22.105469 L 32.550781 -22.105469 L 32.550781 -31.539062 L 14.691406 -31.539062 L 14.691406 -43.132812 L 35.921875 -43.132812 L 35.921875 -52.566406 Z M 3.773438 -52.566406 "/></g></g></g><g fill="#ffffff" fill-opacity="1"><g transform="translate(187.02278, 117.38906)"><g><path d="M 14.085938 -52.703125 L 0.945312 0 L 12.671875 0 L 15.164062 -11.324219 L 28.035156 -11.324219 L 30.597656 0 L 42.257812 0 L 29.113281 -52.703125 Z M 21.566406 -40.101562 L 25.878906 -20.757812 L 17.253906 -20.757812 Z M 21.566406 -40.101562 "/></g></g></g><g fill="#ffffff" fill-opacity="1"><g transform="translate(230.693452, 117.38906)"><g><path d="M 24.195312 -43.132812 L 36.394531 -43.132812 L 36.394531 -52.566406 L 1.144531 -52.566406 L 1.144531 -43.132812 L 13.277344 -43.132812 L 13.277344 0 L 24.195312 0 Z M 24.195312 -43.132812 "/></g></g></g><g fill="#ffffff" fill-opacity="1"><g transform="translate(268.703119, 117.38906)"><g><path d="M 15.027344 -52.566406 L 4.109375 -52.566406 L 4.109375 0 L 15.027344 0 Z M 15.027344 -52.566406 "/></g></g></g><g fill="#ffffff" fill-opacity="1"><g transform="translate(288.247102, 117.38906)"><g><path d="M 42.257812 -52.566406 L 31.878906 -52.566406 L 31.878906 -30.53125 L 32.214844 -19.949219 L 15.296875 -52.566406 L 3.773438 -52.566406 L 3.773438 0 L 14.085938 0 L 14.085938 -22.039062 L 13.75 -32.621094 L 30.730469 0 L 42.257812 0 Z M 42.257812 -52.566406 "/></g></g></g><g fill="#ffffff" fill-opacity="1"><g transform="translate(334.748278, 117.38906)"><g><path d="M 23.453125 0.875 C 32.621094 0.875 37.945312 -2.023438 41.851562 -5.257812 L 41.851562 -28.441406 L 23.992188 -28.441406 L 23.992188 -19.003906 L 30.933594 -19.003906 L 30.933594 -10.582031 C 29.316406 -9.433594 26.890625 -8.558594 23.789062 -8.558594 L 23.183594 -8.558594 C 15.5 -8.558594 13.75 -14.421875 13.75 -24.9375 L 13.75 -27.632812 C 13.75 -38.144531 15.566406 -44.007812 22.78125 -44.007812 L 23.386719 -44.007812 C 29.453125 -44.007812 31 -39.832031 31 -32.621094 L 41.917969 -32.621094 L 41.917969 -35.046875 C 41.917969 -48.1875 35.316406 -53.445312 22.78125 -53.445312 C 9.164062 -53.445312 2.628906 -45.828125 2.628906 -27.632812 L 2.628906 -24.9375 C 2.628906 -6.738281 9.164062 0.875 23.453125 0.875 Z M 23.453125 0.875 "/></g></g></g><g fill="#ffffff" fill-opacity="1"><g transform="translate(61.199999, 189.753913)"><g><path d="M 14.085938 -52.703125 L 0.945312 0 L 12.671875 0 L 15.164062 -11.324219 L 28.035156 -11.324219 L 30.597656 0 L 42.257812 0 L 29.113281 -52.703125 Z M 21.566406 -40.101562 L 25.878906 -20.757812 L 17.253906 -20.757812 Z M 21.566406 -40.101562 "/></g></g></g><g fill="#ffffff" fill-opacity="1"><g transform="translate(104.870676, 189.753913)"><g><path d="M 42.257812 -52.566406 L 31.878906 -52.566406 L 31.878906 -30.53125 L 32.214844 -19.949219 L 15.296875 -52.566406 L 3.773438 -52.566406 L 3.773438 0 L 14.085938 0 L 14.085938 -22.039062 L 13.75 -32.621094 L 30.730469 0 L 42.257812 0 Z M 42.257812 -52.566406 "/></g></g></g><g fill="#ffffff" fill-opacity="1"><g transform="translate(61.199999, 262.118765)"><g><path d="M 3.773438 -52.566406 L 3.773438 0 L 35.921875 0 L 35.921875 -9.433594 L 14.691406 -9.433594 L 14.691406 -22.105469 L 32.550781 -22.105469 L 32.550781 -31.539062 L 14.691406 -31.539062 L 14.691406 -43.132812 L 35.921875 -43.132812 L 35.921875 -52.566406 Z M 3.773438 -52.566406 "/></g></g></g><g fill="#ffffff" fill-opacity="1"><g transform="translate(100.287953, 262.118765)"><g><path d="M 3.773438 -52.566406 L 3.773438 0 L 14.691406 0 L 14.691406 -22.105469 L 32.28125 -22.105469 L 32.28125 -31.539062 L 14.691406 -31.539062 L 14.691406 -43.132812 L 35.652344 -43.132812 L 35.652344 -52.566406 Z M 3.773438 -52.566406 "/></g></g></g><g fill="#ffffff" fill-opacity="1"><g transform="translate(137.758482, 262.118765)"><g><path d="M 3.773438 -52.566406 L 3.773438 0 L 14.691406 0 L 14.691406 -22.105469 L 32.28125 -22.105469 L 32.28125 -31.539062 L 14.691406 -31.539062 L 14.691406 -43.132812 L 35.652344 -43.132812 L 35.652344 -52.566406 Z M 3.773438 -52.566406 "/></g></g></g><g fill="#ffffff" fill-opacity="1"><g transform="translate(175.229014, 262.118765)"><g><path d="M 3.773438 -52.566406 L 3.773438 0 L 35.921875 0 L 35.921875 -9.433594 L 14.691406 -9.433594 L 14.691406 -22.105469 L 32.550781 -22.105469 L 32.550781 -31.539062 L 14.691406 -31.539062 L 14.691406 -43.132812 L 35.921875 -43.132812 L 35.921875 -52.566406 Z M 3.773438 -52.566406 "/></g></g></g><g fill="#ffffff" fill-opacity="1"><g transform="translate(214.316964, 262.118765)"><g><path d="M 13.679688 -24.9375 L 13.679688 -27.632812 C 13.679688 -38.144531 15.367188 -44.007812 22.375 -44.007812 L 22.980469 -44.007812 C 28.710938 -44.007812 30.261719 -39.832031 30.261719 -32.621094 L 41.179688 -32.621094 L 41.179688 -35.046875 C 41.179688 -48.1875 34.84375 -53.445312 22.375 -53.445312 C 8.695312 -53.445312 2.628906 -45.828125 2.628906 -27.632812 L 2.628906 -24.9375 C 2.628906 -6.738281 8.695312 0.875 22.375 0.875 C 34.84375 0.875 41.179688 -4.378906 41.179688 -17.320312 L 41.179688 -17.925781 L 30.261719 -17.925781 C 30.261719 -12.265625 28.304688 -8.558594 22.980469 -8.558594 L 22.375 -8.558594 C 15.367188 -8.558594 13.679688 -14.421875 13.679688 -24.9375 Z M 13.679688 -24.9375 "/></g></g></g><g fill="#ffffff" fill-opacity="1"><g transform="translate(258.594183, 262.118765)"><g><path d="M 24.195312 -43.132812 L 36.394531 -43.132812 L 36.394531 -52.566406 L 1.144531 -52.566406 L 1.144531 -43.132812 L 13.277344 -43.132812 L 13.277344 0 L 24.195312 0 Z M 24.195312 -43.132812 "/></g></g></g><g fill="#ffffff" fill-opacity="1"><g transform="translate(296.60385, 262.118765)"><g><path d="M 15.027344 -52.566406 L 4.109375 -52.566406 L 4.109375 0 L 15.027344 0 Z M 15.027344 -52.566406 "/></g></g></g><g fill="#ffffff" fill-opacity="1"><g transform="translate(316.147833, 262.118765)"><g><path d="M 29.113281 0.136719 L 42.257812 -52.566406 L 30.53125 -52.566406 L 21.566406 -12.46875 L 12.601562 -52.566406 L 0.945312 -52.566406 L 14.085938 0.136719 Z M 29.113281 0.136719 "/></g></g></g><g fill="#ffffff" fill-opacity="1"><g transform="translate(359.818522, 262.118765)"><g><path d="M 3.773438 -52.566406 L 3.773438 0 L 35.921875 0 L 35.921875 -9.433594 L 14.691406 -9.433594 L 14.691406 -22.105469 L 32.550781 -22.105469 L 32.550781 -31.539062 L 14.691406 -31.539062 L 14.691406 -43.132812 L 35.921875 -43.132812 L 35.921875 -52.566406 Z M 3.773438 -52.566406 "/></g></g></g><g fill="#ffffff" fill-opacity="1"><g transform="translate(61.199999, 334.483618)"><g><path d="M 14.691406 -18.871094 L 20.285156 -18.871094 L 27.496094 0 L 39.292969 0 L 31 -20.421875 C 35.71875 -22.375 39.292969 -26.554688 39.292969 -35.046875 L 39.292969 -36.394531 C 39.292969 -50.34375 29.585938 -52.566406 21.027344 -52.566406 L 3.773438 -52.566406 L 3.773438 0 L 14.691406 0 Z M 14.691406 -28.304688 L 14.691406 -43.132812 L 21.5 -43.132812 C 24.464844 -43.132812 28.238281 -41.988281 28.238281 -36.054688 L 28.238281 -35.382812 C 28.238281 -29.453125 24.464844 -28.304688 21.5 -28.304688 Z M 14.691406 -28.304688 "/></g></g></g><g fill="#ffffff" fill-opacity="1"><g transform="translate(103.657598, 334.483618)"><g><path d="M 3.773438 -52.566406 L 3.773438 0 L 35.921875 0 L 35.921875 -9.433594 L 14.691406 -9.433594 L 14.691406 -22.105469 L 32.550781 -22.105469 L 32.550781 -31.539062 L 14.691406 -31.539062 L 14.691406 -43.132812 L 35.921875 -43.132812 L 35.921875 -52.566406 Z M 3.773438 -52.566406 "/></g></g></g><g fill="#ffffff" fill-opacity="1"><g transform="translate(142.745552, 334.483618)"><g><path d="M 19.542969 -21.972656 C 27.160156 -20.960938 29.113281 -18.871094 29.113281 -15.097656 L 29.113281 -14.757812 C 29.113281 -11.253906 26.621094 -8.558594 21.566406 -8.558594 L 20.960938 -8.558594 C 15.90625 -8.558594 13.210938 -11.324219 13.210938 -17.925781 L 2.292969 -17.925781 L 2.292969 -17.320312 C 2.292969 -4.648438 8.828125 0.875 21.230469 0.875 C 33.5625 0.875 40.234375 -4.988281 40.234375 -15.097656 L 40.234375 -15.769531 C 40.234375 -25.542969 34.4375 -29.453125 22.980469 -31 C 15.296875 -32.011719 13.75 -34.035156 13.75 -37.875 L 13.75 -38.214844 C 13.75 -41.582031 16.308594 -44.007812 20.691406 -44.007812 L 21.296875 -44.007812 C 26.824219 -44.007812 28.914062 -40.839844 28.914062 -33.96875 L 39.832031 -33.96875 L 39.832031 -35.382812 C 39.832031 -47.714844 34.167969 -53.445312 21.230469 -53.445312 C 9.234375 -53.445312 2.695312 -47.3125 2.695312 -37.808594 L 2.695312 -37.066406 C 2.695312 -27.566406 8.085938 -23.519531 19.542969 -21.972656 Z M 19.542969 -21.972656 "/></g></g></g><g fill="#ffffff" fill-opacity="1"><g transform="translate(185.742314, 334.483618)"><g><path d="M 22.308594 0.875 C 36.59375 0.875 41.246094 -5.1875 41.246094 -16.648438 L 41.246094 -52.566406 L 30.328125 -52.566406 L 30.328125 -16.984375 C 30.328125 -11.390625 28.507812 -8.558594 22.308594 -8.558594 C 16.109375 -8.558594 14.355469 -11.390625 14.355469 -16.984375 L 14.355469 -52.566406 L 3.4375 -52.566406 L 3.4375 -16.648438 C 3.4375 -5.1875 8.019531 0.875 22.308594 0.875 Z M 22.308594 0.875 "/></g></g></g><g fill="#ffffff" fill-opacity="1"><g transform="translate(230.895634, 334.483618)"><g><path d="M 44.210938 -33.628906 L 43.941406 -23.117188 L 43.941406 0 L 54.859375 0 L 54.859375 -52.566406 L 38.683594 -52.566406 L 29.316406 -18.9375 L 19.882812 -52.566406 L 3.773438 -52.566406 L 3.773438 0 L 14.691406 0 L 14.691406 -23.117188 L 14.355469 -33.628906 L 23.722656 0 L 34.84375 0 Z M 44.210938 -33.628906 "/></g></g></g><g fill="#ffffff" fill-opacity="1"><g transform="translate(289.931916, 334.483618)"><g><path d="M 3.773438 -52.566406 L 3.773438 0 L 35.921875 0 L 35.921875 -9.433594 L 14.691406 -9.433594 L 14.691406 -22.105469 L 32.550781 -22.105469 L 32.550781 -31.539062 L 14.691406 -31.539062 L 14.691406 -43.132812 L 35.921875 -43.132812 L 35.921875 -52.566406 Z M 3.773438 -52.566406 "/></g></g></g><g fill="#ffffff" fill-opacity="1"><g transform="translate(61.199999, 462.927237)"><g><path d="M 13.160156 0.425781 C 17.941406 0.425781 20.722656 -1.351562 22.34375 -3.046875 L 22.34375 -14.816406 L 14.394531 -14.816406 L 14.394531 -12.347656 L 19.5625 -12.347656 L 19.5625 -4.398438 C 18.484375 -3.242188 16.398438 -2.082031 13.351562 -2.082031 L 13.082031 -2.082031 C 7.5625 -2.082031 5.09375 -5.710938 5.09375 -14.277344 L 5.09375 -15.820312 C 5.09375 -24.386719 7.679688 -28.015625 12.773438 -28.015625 L 13.003906 -28.015625 C 17.632812 -28.015625 19.523438 -25.351562 19.523438 -19.140625 L 22.34375 -19.140625 L 22.34375 -20.21875 C 22.34375 -27.011719 19.214844 -30.523438 12.773438 -30.523438 C 5.902344 -30.523438 2.199219 -26.238281 2.199219 -15.820312 L 2.199219 -14.277344 C 2.199219 -3.859375 5.902344 0.425781 13.160156 0.425781 Z M 13.160156 0.425781 "/></g></g></g><g fill="#ffffff" fill-opacity="1"><g transform="translate(85.735573, 462.927237)"><g><path d="M 2.855469 -30.097656 L 2.855469 0 L 19.640625 0 L 19.640625 -2.507812 L 5.632812 -2.507812 L 5.632812 -14.121094 L 17.710938 -14.121094 L 17.710938 -16.59375 L 5.632812 -16.59375 L 5.632812 -27.589844 L 19.640625 -27.589844 L 19.640625 -30.097656 Z M 2.855469 -30.097656 "/></g></g></g><g fill="#ffffff" fill-opacity="1"><g transform="translate(106.45191, 462.927237)"><g><path d="M 12.503906 0.425781 C 19.410156 0.425781 22.84375 -3.859375 22.84375 -14.277344 L 22.84375 -15.820312 C 22.84375 -26.238281 19.410156 -30.523438 12.503906 -30.523438 C 5.632812 -30.523438 2.199219 -26.238281 2.199219 -15.820312 L 2.199219 -14.277344 C 2.199219 -3.859375 5.632812 0.425781 12.503906 0.425781 Z M 12.386719 -2.082031 C 7.332031 -2.082031 5.054688 -5.710938 5.054688 -14.277344 L 5.054688 -15.820312 C 5.054688 -24.386719 7.332031 -28.015625 12.386719 -28.015625 L 12.65625 -28.015625 C 17.710938 -28.015625 19.988281 -24.386719 19.988281 -15.820312 L 19.988281 -14.277344 C 19.988281 -5.710938 17.710938 -2.082031 12.65625 -2.082031 Z M 12.386719 -2.082031 "/></g></g></g><g fill="#ffffff" fill-opacity="1"><g transform="translate(131.026065, 462.927237)"><g><path d="M 5.632812 -12.230469 L 11.191406 -12.230469 C 11.652344 -12.230469 12.117188 -12.230469 12.578125 -12.269531 L 17.363281 0 L 20.414062 0 L 15.203125 -12.8125 C 18.058594 -13.738281 20.414062 -15.976562 20.414062 -20.761719 L 20.414062 -21.53125 C 20.414062 -28.476562 15.472656 -30.097656 11.191406 -30.097656 L 2.855469 -30.097656 L 2.855469 0 L 5.632812 0 Z M 5.632812 -14.742188 L 5.632812 -27.589844 L 11.265625 -27.589844 C 13.851562 -27.589844 17.558594 -26.625 17.558594 -21.453125 L 17.558594 -20.875 C 17.558594 -15.707031 13.851562 -14.742188 11.265625 -14.742188 Z M 5.632812 -14.742188 "/></g></g></g><g fill="#ffffff" fill-opacity="1"><g transform="translate(153.09263, 462.927237)"><g><path d="M 13.160156 0.425781 C 17.941406 0.425781 20.722656 -1.351562 22.34375 -3.046875 L 22.34375 -14.816406 L 14.394531 -14.816406 L 14.394531 -12.347656 L 19.5625 -12.347656 L 19.5625 -4.398438 C 18.484375 -3.242188 16.398438 -2.082031 13.351562 -2.082031 L 13.082031 -2.082031 C 7.5625 -2.082031 5.09375 -5.710938 5.09375 -14.277344 L 5.09375 -15.820312 C 5.09375 -24.386719 7.679688 -28.015625 12.773438 -28.015625 L 13.003906 -28.015625 C 17.632812 -28.015625 19.523438 -25.351562 19.523438 -19.140625 L 22.34375 -19.140625 L 22.34375 -20.21875 C 22.34375 -27.011719 19.214844 -30.523438 12.773438 -30.523438 C 5.902344 -30.523438 2.199219 -26.238281 2.199219 -15.820312 L 2.199219 -14.277344 C 2.199219 -3.859375 5.902344 0.425781 13.160156 0.425781 Z M 13.160156 0.425781 "/></g></g></g><g fill="#ffffff" fill-opacity="1"><g transform="translate(177.628201, 462.927237)"><g><path d="M 2.855469 -30.097656 L 2.855469 0 L 19.640625 0 L 19.640625 -2.507812 L 5.632812 -2.507812 L 5.632812 -14.121094 L 17.710938 -14.121094 L 17.710938 -16.59375 L 5.632812 -16.59375 L 5.632812 -27.589844 L 19.640625 -27.589844 L 19.640625 -30.097656 Z M 2.855469 -30.097656 "/></g></g></g><g fill="#ffffff" fill-opacity="1"><g transform="translate(61.199999, 513.927234)"><g><path d="M 5.632812 -30.097656 L 2.855469 -30.097656 L 2.855469 0 L 5.632812 0 L 5.632812 -9.261719 L 9.648438 -14.933594 L 17.210938 0 L 20.375 0 L 11.421875 -17.441406 L 20.375 -30.097656 L 16.976562 -30.097656 L 5.632812 -13.582031 Z M 5.632812 -30.097656 "/></g></g></g><g fill="#ffffff" fill-opacity="1"><g transform="translate(82.417851, 513.927234)"><g><path d="M 9.800781 -30.40625 L 1.117188 0 L 4.128906 0 L 6.289062 -7.71875 L 17.289062 -7.71875 L 19.449219 0 L 22.457031 0 L 13.777344 -30.40625 Z M 11.769531 -27.359375 L 16.554688 -10.226562 L 6.984375 -10.226562 Z M 11.769531 -27.359375 "/></g></g></g><g fill="#ffffff" fill-opacity="1"><g transform="translate(105.526037, 513.927234)"><g><path d="M 5.632812 -12.230469 L 11.191406 -12.230469 C 15.472656 -12.230469 20.414062 -13.851562 20.414062 -20.761719 L 20.414062 -21.53125 C 20.414062 -28.476562 15.472656 -30.097656 11.191406 -30.097656 L 2.855469 -30.097656 L 2.855469 0 L 5.632812 0 Z M 5.632812 -14.742188 L 5.632812 -27.589844 L 11.265625 -27.589844 C 13.851562 -27.589844 17.558594 -26.625 17.558594 -21.453125 L 17.558594 -20.875 C 17.558594 -15.707031 13.851562 -14.742188 11.265625 -14.742188 Z M 5.632812 -14.742188 "/></g></g></g><g fill="#ffffff" fill-opacity="1"><g transform="translate(127.16825, 513.927234)"><g><path d="M 18.367188 0 L 18.367188 -2.507812 L 5.632812 -2.507812 L 5.632812 -30.097656 L 2.855469 -30.097656 L 2.855469 0 Z M 18.367188 0 "/></g></g></g><g fill="#ffffff" fill-opacity="1"><g transform="translate(145.647047, 513.927234)"><g><path d="M 9.800781 -30.40625 L 1.117188 0 L 4.128906 0 L 6.289062 -7.71875 L 17.289062 -7.71875 L 19.449219 0 L 22.457031 0 L 13.777344 -30.40625 Z M 11.769531 -27.359375 L 16.554688 -10.226562 L 6.984375 -10.226562 Z M 11.769531 -27.359375 "/></g></g></g><g fill="#ffffff" fill-opacity="1"><g transform="translate(168.755231, 513.927234)"><g><path d="M 22.574219 -30.097656 L 19.949219 -30.097656 L 19.949219 -11.691406 L 20.066406 -4.707031 L 5.867188 -30.097656 L 2.855469 -30.097656 L 2.855469 0 L 5.480469 0 L 5.480469 -18.40625 L 5.324219 -25.390625 L 19.5625 0 L 22.574219 0 Z M 22.574219 -30.097656 "/></g></g></g><g clip-path="url(#19e53655d4)"><g clip-path="url(#d4b0bfcc20)"><path fill="#3361ac" d="M 15.210938 730.800781 L 78.390625 730.800781 L 78.390625 793.980469 L 15.210938 793.980469 Z M 15.210938 730.800781 " fill-opacity="1" fill-rule="nonzero"/></g></g><path stroke-linecap="butt" transform="matrix(0.802587, 0, 0, 0.802587, 11.288266, 744.733687)" fill="none" stroke-linejoin="miter" d="M 33.136034 33.690745 C 40.091083 33.690745 44.12102 31.60277 47.250549 29.130297 L 47.250549 11.423881 L 33.136034 11.423881 L 33.136034 19.57623 L 37.808425 19.57623 L 37.808425 24.555247 C 36.654928 25.197701 35.116933 25.54813 33.379387 25.54813 L 32.882946 25.54813 C 27.665442 25.54813 26.974318 21.313775 26.974318 14.60208 L 26.974318 12.621181 C 26.974318 5.914352 27.665442 1.689732 32.639592 1.689732 L 33.136034 1.689732 C 37.107566 1.689732 37.857096 4.663514 37.857096 9.141223 L 47.29922 9.141223 L 47.29922 7.19926 C 47.29922 -2.787976 42.130387 -6.467485 32.639592 -6.467485 C 22.189984 -6.467485 17.37158 -0.797343 17.37158 12.621181 L 17.37158 14.60208 C 17.37158 28.025471 22.189984 33.690745 33.136034 33.690745 Z M 33.136034 33.690745 " stroke="#ffffff" stroke-width="1.429355" stroke-opacity="1" stroke-miterlimit="4"/><path stroke-linecap="butt" transform="matrix(0.78344, 0, 0, 0.78344, 0.00000243409, 759.426846)" fill="none" stroke-linejoin="miter" d="M 63.17792 -5.775176 L 53.739374 -5.775176 L 53.739374 33.00114 L 63.17792 33.00114 L 63.17792 22.066787 L 65.815527 18.232534 L 72.122849 33.00114 L 82.563585 33.00114 L 71.928394 9.492032 L 82.563585 -5.775176 L 71.13063 -5.775176 L 63.17792 7.552468 Z M 63.17792 -5.775176 " stroke="#ffffff" stroke-width="1.429355" stroke-opacity="1" stroke-miterlimit="4"/></svg>